<svg id="Layer_1" data-name="Layer 1" xmlns="http://www.w3.org/2000/svg" viewBox="0 0 679.1 767.7"><defs><style>.cls-1{fill:#5cb205;stroke:#fff;stroke-miterlimit:10;}</style></defs><title>logo</title><path class="cls-1" d="M325.2,285.7c-42.2,0-80.8,16.9-110.3,44.9a117.78,117.78,0,0,0-48.8-10.5C95.7,320.1,38.5,382.3,38.5,459c0,47.1,21.6,88.8,54.5,113.9C60,598,38.5,639.6,38.5,686.8c0,76.7,57.1,138.9,127.6,138.9a114,114,0,0,0,17.6-1.3A189.13,189.13,0,0,0,267,858.2c-.3,2.5-1.7,5.1-.9,7.4,36.6,106.3-21,178.4-47.5,186.8h233c-26.4-57-99.1-34.4-71.8-190.9,13,21,43.8,47.2,95.5,48.4,52.6,0,97.8-34.7,117.3-84.2,68.8-2.1,124-63.4,124-138.9a146.07,146.07,0,0,0-29.2-88.4,233.6,233.6,0,0,0,1.6-27.9c0-109.7-75.3-200.2-172.7-213.6-23.1-25.7-55.4-41.6-91-41.6-2.7,0-5.5.1-8.2.3a156.73,156.73,0,0,0-91.9-29.9ZM340.5,420c30.3,0,58,12.2,79.2,32.3,21.2-20.1,48.9-32.3,79.2-32.3,66.5,0,120.4,58.7,120.4,131.1C590.7,733.2,437.5,741.9,383.5,816.6,382.1,641,233.7,665.5,220.1,551.1,220.1,478.7,274,420,340.5,420Z" transform="translate(-38 -285.2)"/></svg>